PathFileType	4	(X/Y/Z)	./resultDataOpenSim/trcMotMarkerGrf/sub10/qtm-14-05.trc
DataRate	CameraRate	NumFrames	NumMarkers	Units	OrigDataRate	OrigDataStartFrame	OrigNumFrames
250.000000	250.000000	12	24	m	250.000000	304	486
Frame#	Time	L.Toe.Tip			R.Toe.Tip			L.Ankle.Lat			R.Ankle.Lat			L.Ankle.Med			R.Ankle.Med			L.Heel			R.Heel			L.Knee.Lat			R.Knee.Lat			L.Knee.Med			R.Knee.Med			L.Thigh.Upper			R.Thigh.Upper			L.ASIS			R.ASIS			V.Sacral			L.Acromium			R.Acromium			C7			L.Elbow			R.Elbow			L.Wrist.Lat			R.Wrist.Lat
		X1	Y1	Z1	X2	Y2	Z2	X3	Y3	Z3	X4	Y4	Z4	X5	Y5	Z5	X6	Y6	Z6	X7	Y7	Z7	X8	Y8	Z8	X9	Y9	Z9	X10	Y10	Z10	X11	Y11	Z11	X12	Y12	Z12	X13	Y13	Z13	X14	Y14	Z14	X15	Y15	Z15	X16	Y16	Z16	X17	Y17	Z17	X18	Y18	Z18	X19	Y19	Z19	X20	Y20	Z20	X21	Y21	Z21	X22	Y22	Z22	X23	Y23	Z23	X24	Y24	Z24

304	1.212	0.024384864	0.014308117	-0.11783933	0.79424813	0.038167759	0.0097243535	0.031175165	0.15532123	-0.16249288	0.65001829	0.054816177	0.0508518	0.065281514	0.15405097	-0.084238958	0.67196595	0.083747581	-0.030810557	-0.0061250717	0.20533433	-0.11310557	0.59952165	0.032703353	0.0049185316	0.34061212	0.37889894	-0.18990506	0.72107915	0.44327577	0.089135184	0.36118609	0.33539806	-0.074244866	0.72062392	0.46150171	-0.03884669	0.45269051	0.74430197	-0.20886916	0.53670029	0.80066205	0.17088684	0.53538846	0.84861658	-0.15240772	0.58197261	0.87564727	0.073616115	0.36081188	0.89174427	0.0028601312	0.51312489	1.3572963	-0.16178869	0.47296909	1.3513397	0.14409506	0.42436104	1.3748356	-0.015281589	0.33696818	1.0787117	-0.23819237	0.27519478	1.0828661	0.20332134	0.37034984	0.84133688	-0.29938302	0.16482474	0.99113344	0.40500747
305	1.216	0.031683975	0.018726925	-0.11977775	0.79428362	0.038146744	0.0097643523	0.039500537	0.1598526	-0.16290267	0.65022423	0.054824169	0.050749332	0.073761311	0.15779895	-0.08471844	0.67224408	0.083655285	-0.030948334	0.0027153151	0.20997799	-0.11312304	0.59953977	0.032935193	0.0048035924	0.35206138	0.37842435	-0.19079805	0.72457859	0.44253018	0.089127906	0.3723353	0.33537605	-0.075083706	0.72516678	0.46122726	-0.038731956	0.45942777	0.7441097	-0.20845317	0.54132278	0.80134946	0.17167072	0.54151421	0.84932635	-0.15197014	0.58786743	0.87655521	0.074411915	0.36612755	0.89188445	0.0020032465	0.51920687	1.3580033	-0.16135033	0.47969672	1.3519347	0.14475038	0.43053211	1.3759628	-0.014636214	0.34295001	1.0792294	-0.23723252	0.2833902	1.0820552	0.20352967	0.37648096	0.84189204	-0.29859485	0.17340469	0.98833733	0.40428283
306	1.22	0.039387571	0.023205185	-0.12155868	0.7943209	0.038127537	0.0097985264	0.048079734	0.16440084	-0.16329942	0.65043068	0.054829133	0.050677061	0.082436965	0.1615588	-0.085176829	0.67250834	0.083584135	-0.031038982	0.011728129	0.21459772	-0.11316131	0.59956729	0.033143736	0.0047210439	0.36343685	0.37801201	-0.19154971	0.72760555	0.44163554	0.089173118	0.38342701	0.33531502	-0.075719147	0.72954993	0.46076365	-0.038483038	0.46608282	0.74398886	-0.2078718	0.54584176	0.80219458	0.17250378	0.54751935	0.85008044	-0.15158327	0.59363331	0.87763736	0.075305518	0.3714016	0.89221508	0.0011088102	0.52524657	1.3587569	-0.16089583	0.48637843	1.3525911	0.14532922	0.43661922	1.3771041	-0.014024569	0.34888803	1.0798189	-0.23628619	0.29164039	1.0812429	0.20372338	0.38261689	0.84250095	-0.29777297	0.18214058	0.98551414	0.40356764
307	1.224	0.04746481	0.027712209	-0.12319135	0.79435841	0.038111221	0.0098281904	0.056907827	0.16893988	-0.16368987	0.65062654	0.054830893	0.050638033	0.091311712	0.16533137	-0.085606331	0.67275747	0.083536661	-0.031083961	0.020901258	0.21918046	-0.11322646	0.59960262	0.033325863	0.0046658398	0.37477451	0.37770523	-0.19220079	0.73012474	0.44065489	0.089244585	0.39451195	0.33526465	-0.076254298	0.73375554	0.46015051	-0.038168599	0.47262874	0.7439882	-0.20717778	0.55026731	0.803181	0.17334109	0.55341089	0.85087961	-0.15124036	0.59927095	0.87888179	0.0762913	0.376576	0.89270738	0.00030319361	0.53123303	1.3595625	-0.16043118	0.49303273	1.3533046	0.14584532	0.44261113	1.3782578	-0.013444431	0.35477439	1.0804808	-0.23536204	0.29993031	1.080445	0.20389511	0.38875541	0.84317076	-0.29691244	0.19103008	0.98267237	0.40286666
308	1.228	0.055889883	0.032226872	-0.12468451	0.79439148	0.038097196	0.0098572847	0.065972127	0.17344196	-0.16407582	0.65079574	0.054832222	0.05063444	0.10037952	0.16911828	-0.085999746	0.67299245	0.083508961	-0.031090598	0.030218503	0.22371577	-0.11332559	0.59964427	0.033488761	0.0046252715	0.38614662	0.37752304	-0.19282432	0.7321035	0.43965924	0.089289443	0.40562768	0.3352587	-0.076745009	0.73775766	0.45941922	-0.037843538	0.47904022	0.74414388	-0.2064091	0.55461453	0.8042849	0.17414097	0.55919912	0.85172831	-0.15093613	0.60477638	0.88027445	0.077358367	0.38166658	0.89335929	-0.00041238883	0.53715541	1.3604266	-0.15996712	0.49967897	1.3540724	0.14631082	0.44850226	1.3794204	-0.012898187	0.36060466	1.0812141	-0.23446829	0.30824862	1.0796766	0.20404042	0.39489205	0.84390715	-0.2960132	0.20007745	0.97981812	0.40218344
309	1.232	0.064641677	0.036730817	-0.12604319	0.79441226	0.038084827	0.0098901578	0.075260544	0.1778863	-0.16445305	0.65093438	0.054838006	0.05066105	0.10962432	0.17291354	-0.086355662	0.67321358	0.083494005	-0.031069662	0.039668656	0.2281961	-0.11347097	0.59968907	0.033641222	0.0045822169	0.3975837	0.37745782	-0.19342964	0.73355998	0.4387063	0.089262778	0.41679684	0.33531505	-0.077204287	0.74152826	0.4585928	-0.037535385	0.48532486	0.74447105	-0.20554004	0.55890471	0.80547954	0.17487518	0.56489078	0.85263131	-0.15067098	0.61015192	0.88179818	0.078492253	0.38674572	0.89420412	-0.001126068	0.54301005	1.3613543	-0.15950856	0.50631414	1.3548933	0.14673526	0.45429306	1.3805913	-0.012388024	0.36638307	1.0820184	-0.23360745	0.31658741	1.0789531	0.20415724	0.40102392	0.84471048	-0.2950779	0.20927777	0.97696229	0.4015179
310	1.236	0.073695432	0.041204917	-0.127274	0.79441313	0.038074316	0.0099287875	0.084762878	0.18226118	-0.16481233	0.65104985	0.054848496	0.050704029	0.11903299	0.17670714	-0.086677423	0.67341614	0.08348735	-0.031031601	0.049249537	0.23261277	-0.11367463	0.5997278	0.033789275	0.0045296356	0.40908026	0.37748165	-0.19394098	0.73467411	0.43782571	0.089197563	0.42804093	0.33544739	-0.077647448	0.74502912	0.45769697	-0.037239073	0.49151132	0.74497852	-0.20453566	0.56316708	0.80674421	0.17553051	0.57048851	0.85358705	-0.15044731	0.61541477	0.88343225	0.079679941	0.39190184	0.89525453	-0.001903798	0.54880127	1.3623467	-0.15905386	0.51291978	1.3557658	0.1471255	0.45999126	1.3817749	-0.011910733	0.37211202	1.0828916	-0.23278294	0.3249412	1.0782865	0.20424443	0.40714762	0.84557677	-0.29410693	0.21862041	0.97411756	0.40086908
311	1.24	0.083022093	0.045627791	-0.12838778	0.79439076	0.038065424	0.0099719301	0.094476547	0.1865571	-0.16514798	0.65113915	0.054862136	0.050754626	0.12860326	0.18049057	-0.086966791	0.67359221	0.083490477	-0.030983442	0.058967334	0.23695384	-0.11393891	0.59974198	0.033937077	0.0044862963	0.42062073	0.37756589	-0.19426634	0.73575004	0.43701979	0.089202855	0.4393942	0.33566933	-0.078127194	0.74820608	0.45677164	-0.036929167	0.49762611	0.7456785	-0.20340239	0.56743555	0.80806505	0.17610877	0.57599486	0.85459075	-0.15025944	0.62059092	0.88515304	0.080910082	0.39720006	0.89646614	-0.0027249319	0.55453246	1.3634019	-0.15860465	0.5194762	1.3566848	0.14748724	0.46560723	1.3829772	-0.011458964	0.37778436	1.0838326	-0.23200275	0.33330475	1.077682	0.20430217	0.41325853	0.84650062	-0.29310149	0.22809886	0.97128967	0.40023861
312	1.244	0.09259444	0.049976772	-0.1293997	0.79434775	0.038056812	0.010017906	0.10439983	0.19076093	-0.16546521	0.65119006	0.054882945	0.050816977	0.13833806	0.18425535	-0.08722289	0.67373717	0.083509861	-0.030926093	0.068833276	0.24120781	-0.11425634	0.59971383	0.034088055	0.0044860546	0.43219141	0.37771616	-0.19441668	0.73699119	0.43627935	0.089357869	0.45088824	0.33599456	-0.078704042	0.75101698	0.45587575	-0.036587711	0.5036844	0.74657897	-0.20218405	0.57173626	0.80942578	0.17662013	0.58141899	0.85564452	-0.1500888	0.62570015	0.88693696	0.082168791	0.40263594	0.8977736	-0.0034944913	0.56019868	1.3645172	-0.1581714	0.52596592	1.3576431	0.14782834	0.4711452	1.3842003	-0.011028305	0.38339026	1.0848413	-0.23127329	0.34166842	1.07714	0.20433322	0.41935267	0.84747847	-0.29207026	0.23770804	0.96847699	0.39962967
313	1.248	0.1023922	0.054229338	-0.13032972	0.79429109	0.038047585	0.010067427	0.11451174	0.19485324	-0.16576931	0.65121044	0.05491716	0.050896445	0.14823821	0.18799127	-0.087448343	0.67385394	0.083554173	-0.030852817	0.078859443	0.24536763	-0.11461559	0.59964629	0.034245028	0.0045431435	0.44378795	0.37798828	-0.19452908	0.73839755	0.43560364	0.089644381	0.46249292	0.33643468	-0.07935539	0.75346627	0.45507409	-0.03622096	0.50968629	0.74767544	-0.20094912	0.57608061	0.81080502	0.17707473	0.58677644	0.8567585	-0.14991262	0.63074931	0.88876386	0.083435791	0.40813058	0.89914589	-0.0041066223	0.56578916	1.3656927	-0.15776829	0.53237425	1.3586366	0.14815959	0.47660686	1.3854424	-0.010617297	0.38892813	1.0859124	-0.23059344	0.35001703	1.0766605	0.20434251	0.42542512	0.84850937	-0.29102331	0.2474381	0.96567881	0.39904459
314	1.252	0.11240352	0.058363646	-0.13119987	0.7942293	0.038038461	0.010123324	0.12477158	0.19881051	-0.16605092	0.65123211	0.054963689	0.050989038	0.15830214	0.19168589	-0.087650238	0.67395194	0.083631242	-0.030752047	0.089055202	0.24942895	-0.11500492	0.59956614	0.034410376	0.004636767	0.45541489	0.37844989	-0.19472548	0.73988935	0.43500981	0.089995	0.47408353	0.33699574	-0.0799488	0.75559632	0.45441025	-0.03584314	0.51561529	0.74895132	-0.19978324	0.58047311	0.81218507	0.1774828	0.59208239	0.85794294	-0.14971526	0.6357364	0.89061759	0.084684845	0.41359512	0.90059676	-0.0045081084	0.57129601	1.3669325	-0.15740552	0.53868847	1.3596691	0.14849092	0.48200446	1.3867049	-0.01022056	0.39440595	1.0870384	-0.22995758	0.35833626	1.0762441	0.2043328	0.43147061	0.84959137	-0.2899623	0.25727597	0.9629021	0.39848514
315	1.256	0.12262491	0.062363835	-0.13202232	0.79417076	0.038030577	0.010187465	0.13516106	0.20262114	-0.16630278	0.65127872	0.055013751	0.051087999	0.16852694	0.19532131	-0.087834808	0.6740436	0.083743943	-0.030615244	0.099424483	0.25338474	-0.11541359	0.59950213	0.034586357	0.0047336383	0.46709467	0.3791348	-0.19501109	0.7414226	0.43452019	0.090364119	0.48550844	0.33767879	-0.080371493	0.75745245	0.45389112	-0.035454008	0.52144735	0.75038175	-0.1987624	0.5849178	0.81355745	0.17785701	0.59734714	0.8592035	-0.14949105	0.64065436	0.89248333	0.085889029	0.41899274	0.90215562	-0.0047073579	0.57671974	1.3682421	-0.15708519	0.54489268	1.3607496	0.14882611	0.48736063	1.3879968	-0.0098304529	0.39983274	1.0882131	-0.22936211	0.36661649	1.0758856	0.20430165	0.437488	0.85071909	-0.2888853	0.2672171	0.96016168	0.39795552
